<?xml version="1.0" encoding="utf-8"?>
<!-- Generator: Adobe Illustrator 19.0.0, SVG Export Plug-In . SVG Version: 6.00 Build 0)  -->
<svg version="1.1" id="Layer_1" xmlns="http://www.w3.org/2000/svg" xmlns:xlink="http://www.w3.org/1999/xlink" x="0px" y="0px"
	 viewBox="0 0 512 512" style="enable-background:new 0 0 512 512;" xml:space="preserve">
<g id="XMLID_2_">
	<path id="XMLID_9_" d="M255.1,357l33.5-33.5l-43.8-43.8l-33.5,33.5v15.8h27.9V357H255.1z M380.7,150.3c-2.8-2.8-6.5-2.8-9.3,0
		L270.9,250.9c-2.8,2.8-3.7,6.5,0,9.3c2.8,2.8,6.5,2.8,9.3,0l100.5-100.5C384.5,155.9,384.5,153.1,380.7,150.3z M404,320.7v54.9
		c0,22.3-8.4,41.9-24.2,58.6c-15.8,15.8-35.4,24.2-58.6,24.2H82.9c-22.3,0-41.9-8.4-58.6-24.2C8.4,418.4,0,398.9,0,375.6V136.4
		C0,114,8.4,94.5,24.2,77.7s35.4-24.2,58.6-24.2h238.3c12.1,0,23.3,2.8,33.5,7.4c2.8,0.9,4.7,3.7,5.6,6.5c0.9,2.8,0,5.6-2.8,8.4
		l-14,14c-2.8,2.8-5.6,3.7-9.3,1.9c-4.7-0.9-8.4-1.9-13-1.9H82.9c-13,0-23.3,4.7-32.6,13c-9.3,9.3-13,19.5-13,32.6v239.2
		c0,13,4.7,23.3,13,32.6c9.3,9.3,19.5,13,32.6,13h238.3c13,0,23.3-4.7,32.6-13c9.3-9.3,13-19.5,13-32.6v-36.3c0-2.8,0.9-4.7,2.8-6.5
		l18.6-18.6c2.8-2.8,6.5-3.7,10.2-1.9C402.2,313.3,404,316,404,320.7z M376.1,108.5l82.9,82.9L266.2,384h-82.9v-82.9L376.1,108.5z
		 M503.6,146.6l-26.1,26.1l-82.9-82.9l26.1-26.1c5.6-5.6,12.1-8.4,19.5-8.4c7.4,0,14,2.8,19.5,8.4l43.8,43.8
		c5.6,5.6,8.4,12.1,8.4,19.5C512,134.5,509.2,141,503.6,146.6z"/>
</g>
</svg>
